<svg xmlns="http://www.w3.org/2000/svg" viewBox="0 0 24 24">
  <path fill="#fff" d="M18.822-.127c-1.556,0-2.778,1.069-3.657,2.718l-0.016-.009c-1.275,2.5-3.173,4.113-5.252,4.113H2.9c-1.7,0-3.032,1.665-3.032,3.79S1.2,14.274,2.9,14.274A1.516,1.516,0,0,1,4.417,15.79v6.822a1.516,1.516,0,0,0,1.516,1.516H8.964a1.516,1.516,0,0,0,1.516-1.516V21.854c0-.758-0.758-1.1-0.758-1.516V15.032c0-.017.012-0.029,0.014-0.047a0.74,0.74,0,0,1,.085-0.3,0.48,0.48,0,0,1,.045-0.067A0.745,0.745,0,0,1,10.1,14.4s0.006-.008.01-0.011,0.006,0,.009,0a0.878,0.878,0,0,1,.2-0.061c1.913,0.2,3.645,1.747,4.834,4.073l0.018-.009c0.879,1.644,2.1,2.71,3.653,2.71,3.484,0,5.306-5.338,5.306-10.612S22.305-.127,18.822-0.127h0Zm-3.79,10.612a21.368,21.368,0,0,1,.125-2.274h2.149c0.837,0,1.516,1.019,1.516,2.274s-0.679,2.274-1.516,2.274H15.156A21.347,21.347,0,0,1,15.032,10.484Zm-13.643,0c0-1.255.679-2.274,1.516-2.274H8.221a3.505,3.505,0,0,0-.769,2.274,3.5,3.5,0,0,0,.769,2.274H2.9C2.068,12.758,1.389,11.741,1.389,10.484ZM8.964,22.612H5.932V15.79a3.008,3.008,0,0,0-.407-1.516H6.054v0.009h2.28a2.288,2.288,0,0,0-.128.749v5.306a2.286,2.286,0,0,0,.651,1.505c0.033,0.04.073,0.081,0.107,0.126v0.643ZM9.9,12.767H9.726V12.758c-0.837,0-1.516-1.017-1.516-2.274S8.889,8.21,9.726,8.21H9.9a6.2,6.2,0,0,0,3.946-1.53,22.274,22.274,0,0,0,0,7.617A6.2,6.2,0,0,0,9.9,12.767h0Zm8.924,6.813c-1.529,0-2.842-2.176-3.442-5.306h1.926c1.7,0,3.032-1.664,3.032-3.79s-1.332-3.79-3.032-3.79H15.38c0.6-3.128,1.913-5.306,3.442-5.306,2.093,0,3.79,4.073,3.79,9.1S20.915,19.58,18.822,19.58Z"/>
</svg>
