<svg xmlns="http://www.w3.org/2000/svg" width="24" height="24" viewBox="0 0 24 24">
  <defs>
    <style>
      .cls-1 {
        fill: #fff;
        fill-rule: evenodd;
      }
    </style>
  </defs>
  <path class="cls-1" d="M18.5,0.77l-6.012,6L5.739,0,0,5.754l6.777,6.737L2.651,16.627,0.765,23.255l6.613-1.89L11.5,17.23l6.75,6.765,5.738-5.751-6.777-6.737L23.2,5.48ZM21.67,5.48L19.73,7.425l-3.2-3.177L18.473,2.3ZM3.908,16.928L15.768,5.015l3.2,3.2L7.077,20.105Zm-2.35-11.2,4.181-4.19,1.393,1.4-1.995,2L5.9,5.7,7.9,3.7l2.514,2.52L9.182,7.452,9.947,8.219l1.23-1.233,0.546,0.548-4.181,4.19ZM3.389,17.969l2.65,2.656L2.35,21.666ZM17,12.793L15,14.819l0.765,0.767,1.995-2,2.514,2.52-1.23,1.232,0.766,0.767,1.229-1.232,1.394,1.4-4.181,4.19-5.985-6,4.181-4.19Z"/>
</svg>
